{"title":"Resurrection (1980) DVDRip","uid":9373314,"size":1454839604,"categoryP":"video","categoryS":"movies","magnet":"?xt=urn:btih:301aaea9a05ea0ff3cf3dc2ab0fc8491da3b6004&amp;dn=Resurrection+%281980%29+DVDRip&amp;tr=udp%3A%2F%2Ftracker.openbittorrent.com%3A80&amp;tr=udp%3A%2F%2Fopen.demonii.com%3A1337&amp;tr=udp%3A%2F%2Ftracker.coppersurfer.tk%3A6969&amp;tr=udp%3A%2F%2Fexodus.desync.com%3A6969","seeders":1,"leechers":0,"uploader":"7","files":-1,"time":1387570730,"description":"Genre\tDrama, Fantasy\nActors\tEllen Burstyn, Sam Shepard, Richard Farnsworth\nPlot\tEllen Burstyn experiences the afterlife for a brief time after a car accident that kills her husband. As she begins her long process of physical healing, she discovers that she has the ... See full summary Â»\nIMDB link\thttp://www.imdb.com/title/tt0081414/\n\nGeneral\nComplete name                            : Resurrection (1980).avi\nFormat                                   : AVI\nFormat/Info                              : Audio Video Interleave\nFormat profile                           : OpenDML\nFile size                                : 1.35 GiB\nDuration                                 : 1h 43mn\nOverall bit rate                         : 1 879 Kbps\nMovie name                               : DVD.Title2.DVDRip\nWriting application                      : Lavf52.78.4\nOriginal source form/Name                : DVD\n\nVideo\nID                                       : 0\nFormat                                   : MPEG-4 Visual\nFormat profile                           : Advanced Simple@L5\nFormat settings, BVOP                    : 2\nFormat settings, QPel                    : No\nFormat settings, GMC                     : No warppoints\nFormat settings, Matrix                  : Default (H.263)\nMuxing mode                              : Packed bitstream\nCodec ID                                 : DX50\nCodec ID/Hint                            : DivX 5\nDuration                                 : 1h 43mn\nBit rate                                 : 1 673 Kbps\nWidth                                    : 720 pixels\nHeight                                   : 388 pixels\nDisplay aspect ratio                     : 1.85:1\nFrame rate                               : 29.970 fps\nColor space                              : YUV\nChroma subsampling                       : 4:2:0\nBit depth                                : 8 bits\nScan type                                : Progressive\nCompression mode                         : Lossy\nBits/(Pixel*Frame)                       : 0.200\nStream size                              : 1.21 GiB (89%)\nWriting library                          : XviD 1.2.1 (UTC 2008-12-04)\n\nAudio\nID                                       : 1\nFormat                                   : AC-3\nFormat/Info                              : Audio Coding 3\nMode extension                           : CM (complete main)\nFormat settings, Endianness              : Big\nCodec ID                                 : 2000\nDuration                                 : 1h 43mn\nBit rate mode                            : Constant\nBit rate                                 : 192 Kbps\nChannel(s)                               : 2 channels\nChannel positions                        : Front: L R\nSampling rate                            : 48.0 KHz\nBit depth                                : 16 bits\nCompression mode                         : Lossy\nStream size                              : 142 MiB (10%)\nAlignment                                : Aligned on interleaves\nInterleave, duration                     : 32 ms (0.96 video frame)\nInterleave, preload duration             : 32 ms\n &lt;a href=&quot;\nhttp://lookpic.com/O/i2/1313/siVyhOs.jpeg&quot; rel=&quot;nofollow&quot; target=&quot;_NEW&quot;&gt;\nhttp://lookpic.com/O/i2/1313/siVyhOs.jpeg&lt;/a&gt;","torrent":{"xt":"urn:btih:301aaea9a05ea0ff3cf3dc2ab0fc8491da3b6004","amp;dn":"Resurrection+%281980%29+DVDRip","amp;tr":["udp%3A%2F%2Ftracker.openbittorrent.com%3A80","udp%3A%2F%2Fopen.demonii.com%3A1337","udp%3A%2F%2Ftracker.coppersurfer.tk%3A6969","udp%3A%2F%2Fexodus.desync.com%3A6969"],"infoHash":"301aaea9a05ea0ff3cf3dc2ab0fc8491da3b6004","infoHashBuffer":{"type":"Buffer","data":[48,26,174,169,160,94,160,255,60,243,220,42,176,252,132,145,218,59,96,4]},"announce":[],"urlList":[]}}